<?xml version="1.0" encoding="UTF-8"?>
<svg id="Layer_1" data-name="Layer 1" xmlns="http://www.w3.org/2000/svg" viewBox="0 0 1181.83 311.89">
  <defs>
    <style>
      .cls-1 {
        fill: #ec2227;
      }

      .cls-2 {
        fill: #fff;
      }

      .cls-3 {
        fill: none;
      }

      .cls-4 {
        fill: #1d1d1b;
      }
    </style>
  </defs>
  <g>
    <path class="cls-1" d="m516.09,194.54c-.16,0-.33,0-.49,0-.04,0-.08,0-.12,0-19.84.2-38.08,10.32-48.79,27.08-1.2,1.88-3.64,2.52-5.61,1.47-1.97-1.04-2.8-3.42-1.92-5.47,9.26-21.41,28.76-36.32,51.56-39.74-6.17-36.28-37.68-63.14-74.96-63.14-14.51,0-28.63,4.12-40.84,11.91-20.36,12.99-33.45,35.07-35.03,59.06-.15,2.24-2.01,3.99-4.26,3.99h0c-2.24,0-4.11-1.74-4.26-3.98-2.66-38.39,21.38-73.93,57.6-85.98C397.46,41.72,346.83,0,287.21,0c-46.05,0-88.63,25.91-109.97,66.46,15.49,3.77,29.85,11.32,41.82,22.05,13.29,11.91,23.04,27.17,28.19,44.15.65,2.15-.47,4.43-2.57,5.23-2.1.8-4.46-.16-5.4-2.2-17.45-37.68-58.04-58.06-98.71-49.56-32.47,6.76-58.98,31.86-67.53,63.94,0,0,0,.02,0,.03-.02.1-.05.22-.09.36-1.83,7.35-5.56,26.12-.84,41.67.08.25.13.5.16.76.18.87,1.21,4.62,1.59,5.88.01.04.02.07.03.11.95,3.1,2.09,6.22,3.41,9.28.82,1.9.16,4.11-1.56,5.25-1.72,1.14-4.01.89-5.45-.6-14.97-15.58-21.66-32.74-21.28-55C19.46,170.21,0,199.13,0,231.64c0,41.33,32.23,76.38,73.36,79.79.42.03.82.13,1.2.28h441.37s.17,0,.22,0c23.32,0,44.44-13.87,53.73-35.34,3.18-7.34,4.8-15.17,4.8-23.25,0-32.3-26.28-58.58-58.59-58.58Z"/>
    <g>
      <circle class="cls-2" cx="231.6" cy="268.34" r="24.11" transform="translate(-57.29 62.94) rotate(-13.79)"/>
      <circle class="cls-2" cx="133.78" cy="244.22" r="17.69" transform="translate(-143.89 223.23) rotate(-56.96)"/>
      <circle class="cls-2" cx="192.57" cy="141.16" r="20.86" transform="translate(-30.99 225.02) rotate(-56.8)"/>
      <path class="cls-2" d="m308.96,99.94c.37,7.2,6.51,12.74,13.71,12.37,7.2-.37,12.74-6.51,12.37-13.71-.37-7.2-6.51-12.74-13.71-12.37-7.2.37-12.74,6.51-12.37,13.71Z"/>
      <circle class="cls-2" cx="345.21" cy="263.16" r="21.23" transform="translate(25.68 556.97) rotate(-79.92)"/>
      <circle class="cls-2" cx="439.97" cy="244.49" r="17.3" transform="translate(-62.2 210.17) rotate(-25.15)"/>
      <polygon class="cls-2" points="325.66 100.43 318.33 98.09 298.8 159.13 306.88 159.13 325.66 100.43"/>
      <path class="cls-3" d="m260.25,206.31v-29.61l-66.22-31-55,98.63,91.16,23.94,38.19-51.76c-4.66-1.06-8.13-5.22-8.13-10.2Z"/>
      <path class="cls-2" d="m445.12,238.75l-.05.15-98.3,20.37-31.11-44.96c-1.82,1.54-4.18,2.47-6.75,2.47h-.04l34.79,50.27,106.6-22.09v-.02s-5.13-6.18-5.13-6.18Z"/>
      <path class="cls-2" d="m268.39,216.51l-38.19,51.76-91.16-23.94,55-98.63,66.22,31v-7.1c0-.2.02-.4.03-.61l-69.18-32.38-62.57,112.19,104.47,27.43,43.87-59.46h-6.15c-.8,0-1.58-.1-2.33-.27Z"/>
      <path class="cls-2" d="m308.91,159.13h-38.18c-5.58,0-10.12,4.36-10.44,9.86-.01.2-.03.4-.03.61v36.71c0,4.98,3.48,9.14,8.13,10.2.75.17,1.53.27,2.33.27h38.18c2.57,0,4.93-.93,6.75-2.47,2.27-1.92,3.72-4.79,3.72-8v-36.71c0-5.78-4.69-10.47-10.47-10.47Zm-1.87,42.72c-.1.36-.41.63-.82.63h-7.02c-.09,0-.17-.02-.25-.04-.54-.08-.99-.41-1.19-.89l-.92-2.15-4.92-11.5-1.33-3.11-.45-1.06c-.14-.32-.5-.32-.64,0l-2.34,5.58-1.73,4.13-.68,1.61c-.11.27.08.56.37.56h5.22c.32,0,.62.19.74.49l.4.9,1.88,4.19c.26.62-.19,1.31-.86,1.31h-19.01c-.61,0-1.02-.6-.79-1.21l6.58-15.67,2.71-6.45,2.81-6.68c.23-.6.84-1.02,1.54-1.02h6.97c.55,0,1.04.27,1.34.68.08.11.15.21.2.34l4.42,10.46.14.34,7.61,18c.08.2.08.4.03.58Z"/>
    </g>
  </g>
  <g>
    <g>
      <path class="cls-4" d="m626.46,62.51l-6.94,20.82c-.25.76-.63,1.01-1.39,1.01h-12.62c-.76,0-1.01-.38-.88-1.26l25.99-73.93c.5-1.26.88-2.52,1.14-6.81,0-.5.25-.88.76-.88h17.54c.63,0,.76.13.88.76l29.14,80.99c.13.76,0,1.14-.76,1.14h-14.13c-.63,0-1.01-.25-1.26-.76l-7.32-21.07h-30.15Zm26.12-13.75c-2.65-8.33-8.58-25.86-11.1-34.69h-.13c-2.02,8.45-7.06,23.21-10.85,34.69h22.08Z"/>
      <path class="cls-4" d="m684.87,2.59c0-.63.13-.88.88-1.01,3.66-.13,12.24-.38,23.84-.38,29.65,0,44.53,16.78,44.53,40.24,0,30.78-23.47,43.15-44.79,43.15-7.95,0-19.55,0-23.59-.25-.5,0-.88-.38-.88-1.14V2.59Zm15.27,68.63c2.52.13,5.3.13,8.58.13,17.79,0,29.77-10.34,29.77-29.52s-11.99-27.38-29.02-27.38c-3.53,0-6.31.13-9.33.25v56.52Z"/>
      <path class="cls-4" d="m837.53,42.46c.13,26.11-16.02,43.15-38.98,43.15-24.48,0-39.11-18.17-39.11-42.77S775.33.19,798.54.19c24.73,0,38.86,18.92,38.98,42.26Zm-38.48,29.65c14.26,0,22.83-11.73,22.71-29.27,0-17.66-8.71-29.14-23.47-29.14-13.37,0-23.09,10.47-23.09,29.14,0,16.27,8.33,29.27,23.84,29.27Z"/>
      <path class="cls-4" d="m846.49,2.71c0-.63.13-1.01.76-1.14,4.54-.13,16.02-.38,24.47-.38,26.37,0,30.41,13.88,30.41,21.95,0,8.96-4.79,14.13-7.95,16.4,4.67,2.4,12.11,7.95,12.11,19.55,0,15.9-13.75,25.48-34.57,25.48-10.98,0-19.55-.13-24.35-.25-.63-.13-.88-.5-.88-1.01V2.71Zm15.01,31.79h9.59c4.54,0,9.59.38,11.48.76,2.65-2.14,4.79-5.05,4.79-9.97,0-7.44-5.55-11.1-15.9-11.1-4.04,0-7.32.13-9.97.13v20.19Zm0,37.09c2.78.13,5.93.25,9.71.25,11.86.13,19.43-3.91,19.43-12.36,0-5.17-2.52-9.34-9.08-10.98-2.27-.63-5.17-.88-8.58-.88h-11.48v23.97Z"/>
      <path class="cls-4" d="m966.97,83.33c-.13.88-.38,1.01-1.14,1.01h-50.21c-.88,0-1.14-.38-1.14-1.01V2.46c0-.63.25-1.01,1.01-1.01h48.7c.76,0,1.01.13,1.13.88l1.39,11.73c.13.63-.13,1.14-.88,1.14h-36.08v20.06h32.8c.63,0,.88.13.88.88v11.98c0,.63-.38.76-.88.76h-32.8v21.7h38.23c.76,0,1.01.38.88,1.01l-1.89,11.73Z"/>
      <path class="cls-4" d="m1017.31,15.2h-25.61c-.63,0-.88-.38-.76-1.01l1.64-11.73c.13-.76.38-1.01,1.13-1.01h62.7c.76,0,1.13.25,1.26,1.14l1.14,11.48c.13.76-.25,1.14-.88,1.14h-25.48v68c0,.76-.38,1.14-1.01,1.14h-12.99c-.88.13-1.14-.25-1.14-1.14V15.2Z"/>
      <path class="cls-4" d="m1063.23,2.59c0-.63.25-1.01.88-1.01,4.79-.13,14.13-.38,23.34-.38,24.47,0,33.56,13.62,33.56,27.5,0,20.06-15.52,28.76-34.57,28.76h-7.95v25.86c0,.63-.25,1.01-1.01,1.01h-13.25c-.63,0-1.01-.25-1.01-.88V2.59Zm15.27,41.38c2.14.13,3.78.13,7.95.13,10.6,0,19.55-3.53,19.55-15.01,0-9.21-6.56-14.63-18.17-14.63-4.42,0-7.95.13-9.33.25v29.27Z"/>
      <path class="cls-4" d="m1128.33,81.06c-.63-.38-.88-.88-.88-1.89v-13.12c0-.5.5-.76,1.01-.5,6.81,4.42,15.14,6.56,22.46,6.56,10.34,0,14.76-4.04,14.76-9.46,0-4.67-3.03-8.2-12.62-12.24l-6.06-2.52c-15.52-6.56-19.55-14.38-19.55-23.84,0-13.5,10.22-23.84,29.27-23.84,7.95,0,15.14,1.14,19.3,3.28.63.38.76.76.76,1.64v12.24c0,.5-.38,1.01-1.14.5-4.79-2.78-11.73-4.16-19.05-4.16-10.85,0-14.26,4.54-14.26,8.96s2.9,7.7,12.87,11.86l4.79,2.02c16.4,6.81,21.07,14.76,21.07,24.73,0,14.76-11.61,24.35-30.66,24.35-9.21,0-16.91-1.77-22.08-4.54Z"/>
    </g>
    <g>
      <path class="cls-4" d="m652.36,195.67c-.12.58-.35.7-.82.7h-44.46c-.82,0-.94-.23-.94-.94v-75.58c0-.58.23-.82.82-.82h42.71c.58,0,.7.12.82.7l.94,7.37c.12.47,0,.82-.58.82h-34.98v24.45h31.59c.47,0,.7.23.7.7v7.49c0,.58-.35.7-.7.7h-31.59v26.21h37.21c.58,0,.7.23.58.7l-1.29,7.49Z"/>
      <path class="cls-4" d="m665.35,196.38c-.47,0-.82-.12-.82-.82v-75.82c0-.47.12-.7.7-.7h11.58c.58,0,.7.23,1.05.7,10.18,17.2,32.64,55.23,37.32,64.35h.12c-.23-3.16-.35-7.6-.35-17.78v-46.45c0-.58.23-.82.82-.82h7.72c.58,0,.82.35.82.94v75.58c0,.58-.23.82-1.05.82h-10.41c-.7,0-1.05-.12-1.29-.7-5.27-9.83-34.4-58.15-38.14-66.81h-.12c.23,4.56.47,10.3.47,20.59v46.1c0,.58-.23.82-.7.82h-7.72Z"/>
      <path class="cls-4" d="m757.9,127.93h-25.04c-.47,0-.7-.23-.58-.82l1.17-7.37c.12-.47.35-.7.94-.7h57.21c.58,0,.82.23.94.82l.82,7.25c.12.58-.12.82-.58.82h-25.04v67.51c0,.7-.23.94-.82.94h-8.07c-.58,0-.94-.23-.94-.82v-67.63Z"/>
      <path class="cls-4" d="m847.52,195.67c-.12.58-.35.7-.82.7h-44.46c-.82,0-.94-.23-.94-.94v-75.58c0-.58.23-.82.82-.82h42.71c.58,0,.7.12.82.7l.94,7.37c.12.47,0,.82-.58.82h-34.98v24.45h31.59c.47,0,.7.23.7.7v7.49c0,.58-.35.7-.7.7h-31.59v26.21h37.21c.58,0,.7.23.58.7l-1.29,7.49Z"/>
      <path class="cls-4" d="m860.39,196.38c-.47,0-.7-.12-.7-.7v-75.58c0-.59.12-.94.7-.94,6.55-.23,12.52-.35,20.36-.35,17.2,0,28.67,7.37,28.67,22.35,0,11-7.49,17.78-16.15,20.71,3.98,5.5,19.66,28.55,22.7,33.58.23.47.23.94-.35.94h-9.83c-.7,0-.94-.12-1.29-.47-3.63-5.5-13.34-20.48-19.19-29.48-.94-1.4-1.52-1.87-2.69-1.87h-13.34v31.12c0,.47-.23.7-.7.7h-8.19Zm21.41-40.37c11.12,0,17.9-5.73,17.9-14.39s-6.79-14.16-19.31-14.16c-4.45,0-8.78.12-11.12.23v28.31h12.52Z"/>
      <path class="cls-4" d="m924.51,119.97c0-.47.12-.82.58-.82,3.74-.12,11.47-.35,19.31-.35,20.71,0,29.84,11.7,29.84,24.8,0,17.78-14.04,26.09-31.01,26.09-4.91,0-6.44-.12-9.01-.12v25.98c0,.58-.12.82-.7.82h-8.31c-.47,0-.7-.23-.7-.7v-75.7Zm9.71,40.83c1.99.12,3.98.12,8.89.12,11.47,0,21.41-4.33,21.41-17.08,0-10.65-8.19-16.38-20.01-16.38-4.8,0-8.42.12-10.3.23v33.11Z"/>
      <path class="cls-4" d="m986.75,196.38c-.47,0-.7-.12-.7-.7v-75.58c0-.59.12-.94.7-.94,6.55-.23,12.52-.35,20.36-.35,17.2,0,28.67,7.37,28.67,22.35,0,11-7.49,17.78-16.15,20.71,3.98,5.5,19.66,28.55,22.7,33.58.23.47.23.94-.35.94h-9.83c-.7,0-.94-.12-1.29-.47-3.63-5.5-13.34-20.48-19.19-29.48-.94-1.4-1.52-1.87-2.69-1.87h-13.34v31.12c0,.47-.23.7-.7.7h-8.19Zm21.41-40.37c11.12,0,17.9-5.73,17.9-14.39s-6.79-14.16-19.31-14.16c-4.45,0-8.78.12-11.12.23v28.31h12.52Z"/>
      <path class="cls-4" d="m1060.58,195.56c0,.58-.12.82-.7.82h-8.19c-.58,0-.82-.23-.82-.82v-75.7c0-.58.23-.82.7-.82h8.31c.47,0,.7.23.7.7v75.82Z"/>
      <path class="cls-4" d="m1075.2,193.1c-.58-.23-.7-.7-.7-1.4v-8.42c0-.47.35-.7.82-.35,6.08,4.1,13.57,5.73,20.01,5.73,11.23,0,16.38-5.03,16.38-12.05,0-5.5-3.16-9.59-13.81-14.39l-5.15-2.11c-14.51-6.2-17.79-13.57-17.79-21.41,0-12.17,9.36-20.83,25.16-20.83,7.37,0,13.69,1.17,17.32,3.16.47.23.58.59.58,1.17v7.84c0,.47-.35.82-.94.47-4.1-2.57-10.53-3.86-17.2-3.86-12.17,0-15.44,6.32-15.44,11.23,0,5.27,3.04,9.24,13.46,13.69l5.03,2.11c14.39,6.08,18.6,13.34,18.6,22.11,0,12.64-9.48,21.76-26.56,21.76-8.07,0-15.21-1.75-19.77-4.45Z"/>
      <path class="cls-4" d="m1180.51,195.67c-.12.58-.35.7-.82.7h-44.46c-.82,0-.94-.23-.94-.94v-75.58c0-.58.23-.82.82-.82h42.71c.58,0,.7.12.82.7l.94,7.37c.12.47,0,.82-.58.82h-34.98v24.45h31.59c.47,0,.7.23.7.7v7.49c0,.58-.35.7-.7.7h-31.59v26.21h37.21c.58,0,.7.23.58.7l-1.29,7.49Z"/>
    </g>
    <g>
      <path class="cls-4" d="m622.97,285.83l-8.36,24.15c-.12.48-.35.72-.93.72h-7.9c-.58,0-.81-.36-.7-.96l25.32-72.56c.35-.96.7-1.79.81-4.9,0-.36.23-.6.58-.6h11.38c.46,0,.58.12.7.6l27.29,77.58c.23.48.12.84-.46.84h-8.83c-.46,0-.7-.24-.93-.6l-8.48-24.27h-29.5Zm26.83-9.21c-2.55-7.77-9.87-28.69-12.08-36.82h-.12c-1.97,7.65-7.55,23.67-11.96,36.82h24.16Z"/>
      <path class="cls-4" d="m679.29,310.69c-.46,0-.7-.12-.7-.72v-77.22c0-.6.12-.96.7-.96,6.5-.24,12.43-.36,20.21-.36,17.07,0,28.45,7.53,28.45,22.83,0,11.24-7.43,18.17-16.03,21.16,3.95,5.62,19.51,29.17,22.53,34.31.23.48.23.96-.35.96h-9.75c-.7,0-.93-.12-1.28-.48-3.6-5.62-13.24-20.92-19.05-30.12-.93-1.43-1.51-1.91-2.67-1.91h-13.24v31.8c0,.48-.23.72-.7.72h-8.13Zm21.25-41.24c11.03,0,17.77-5.86,17.77-14.7s-6.74-14.46-19.16-14.46c-4.41,0-8.71.12-11.03.24v28.93h12.43Z"/>
      <path class="cls-4" d="m792.05,308.42c0,.6-.12,1.08-.58,1.2-3.83,1.67-9.17,2.27-15.68,2.27-19.39,0-39.25-11.59-39.25-40.88,0-23.91,16.03-40.52,40.76-40.52,7.78,0,12.31.84,14.87,2.15.35.12.58.48.58.96v8.01c0,.72-.46.72-.81.6-3.25-1.79-8.48-2.75-14.87-2.75-18.23,0-30.66,12.19-30.66,31.32,0,24.98,18.23,32.04,30.43,32.04,5.92,0,10.22-.48,14.52-2.15.46-.12.7-.12.7.48v7.29Z"/>
      <path class="cls-4" d="m851.28,310.69c-.58,0-.81-.12-.81-.72v-36.1h-38.44v35.98c0,.48-.23.84-.81.84h-8.13c-.58,0-.81-.24-.81-.84v-77.34c0-.6.23-.84.81-.84h8.13c.58,0,.81.24.81.72v32.39h38.44v-32.39c0-.48.23-.72.7-.72h8.48c.35,0,.58.24.58.72v77.58c0,.6-.23.72-.7.72h-8.25Z"/>
      <path class="cls-4" d="m886,309.86c0,.6-.12.84-.7.84h-8.13c-.58,0-.81-.24-.81-.84v-77.34c0-.6.23-.84.7-.84h8.25c.46,0,.7.24.7.72v77.46Z"/>
      <path class="cls-4" d="m917.7,240.76h-24.85c-.46,0-.7-.24-.58-.84l1.16-7.53c.12-.48.35-.72.93-.72h56.79c.58,0,.81.24.93.84l.81,7.41c.12.6-.12.84-.58.84h-24.85v68.97c0,.72-.23.96-.81.96h-8.01c-.58,0-.93-.24-.93-.84v-69.09Z"/>
      <path class="cls-4" d="m1004.91,309.98c-.12.6-.35.72-.81.72h-44.13c-.81,0-.93-.24-.93-.96v-77.22c0-.6.23-.84.81-.84h42.39c.58,0,.7.12.81.72l.93,7.53c.12.48,0,.84-.58.84h-34.72v24.98h31.36c.46,0,.7.24.7.72v7.65c0,.6-.35.72-.7.72h-31.36v26.78h36.93c.58,0,.7.24.58.72l-1.28,7.65Z"/>
      <path class="cls-4" d="m1065.65,308.42c0,.6-.12,1.08-.58,1.2-3.83,1.67-9.17,2.27-15.68,2.27-19.39,0-39.25-11.59-39.25-40.88,0-23.91,16.03-40.52,40.76-40.52,7.78,0,12.31.84,14.87,2.15.35.12.58.48.58.96v8.01c0,.72-.46.72-.81.6-3.25-1.79-8.48-2.75-14.87-2.75-18.23,0-30.66,12.19-30.66,31.32,0,24.98,18.23,32.04,30.43,32.04,5.92,0,10.22-.48,14.52-2.15.46-.12.7-.12.7.48v7.29Z"/>
      <path class="cls-4" d="m1095.84,240.76h-24.85c-.46,0-.7-.24-.58-.84l1.16-7.53c.12-.48.35-.72.93-.72h56.79c.58,0,.81.24.93.84l.81,7.41c.12.6-.12.84-.58.84h-24.85v68.97c0,.72-.23.96-.81.96h-8.01c-.58,0-.93-.24-.93-.84v-69.09Z"/>
      <path class="cls-4" d="m1135.55,307.35c-.58-.24-.7-.72-.7-1.43v-8.61c0-.48.35-.72.81-.36,6.04,4.18,13.47,5.86,19.86,5.86,11.15,0,16.26-5.14,16.26-12.31,0-5.62-3.14-9.8-13.7-14.7l-5.11-2.15c-14.4-6.33-17.65-13.87-17.65-21.88,0-12.43,9.29-21.28,24.97-21.28,7.32,0,13.59,1.2,17.19,3.23.46.24.58.6.58,1.2v8.01c0,.48-.35.84-.93.48-4.07-2.63-10.45-3.94-17.07-3.94-12.08,0-15.33,6.46-15.33,11.48,0,5.38,3.02,9.44,13.36,13.99l4.99,2.15c14.29,6.22,18.47,13.63,18.47,22.59,0,12.91-9.41,22.23-26.36,22.23-8.01,0-15.1-1.79-19.63-4.54Z"/>
    </g>
  </g>
</svg>